<svg width="32" height="32" viewBox="0 0 32 32" fill="none" xmlns="http://www.w3.org/2000/svg">
<g clip-path="url(#clip0_5700_959)">
<path d="M21.3333 0V16C21.3333 13.171 20.2095 10.4579 18.2091 8.45753C16.2088 6.45714 13.4956 5.33333 10.6667 5.33333C7.83769 5.33333 5.12458 6.45714 3.12419 8.45753C1.12381 10.4579 0 13.171 0 16L0 32H10.6667V16C10.6667 18.829 11.7905 21.5421 13.7909 23.5425C15.7913 25.5429 18.5044 26.6667 21.3333 26.6667C24.1623 26.6667 26.8754 25.5429 28.8758 23.5425C30.8762 21.5421 32 18.829 32 16V0H21.3333Z" fill="#171717"/>
</g>
<defs>
<clipPath id="clip0_5700_959">
<rect width="32" height="32" fill="white"/>
</clipPath>
</defs>
</svg>
