<svg width="32" height="32" viewBox="0 0 32 32" fill="none" xmlns="http://www.w3.org/2000/svg">
<g clip-path="url(#clip0_5693_1851)">
<path d="M16 16C11.7565 16 7.68687 17.6857 4.68629 20.6863C1.68571 23.6869 0 27.7565 0 32C4.24346 32 8.31313 30.3143 11.3137 27.3137C14.3143 24.3131 16 20.2435 16 16ZM16 16C16 11.7565 14.3143 7.68687 11.3137 4.68629C8.31313 1.68571 4.24346 0 0 0C0 4.24346 1.68571 8.31313 4.68629 11.3137C7.68687 14.3143 11.7565 16 16 16ZM32 0C27.7565 0 23.6869 1.68571 20.6863 4.68629C17.6857 7.68687 16 11.7565 16 16C20.2435 16 24.3131 14.3143 27.3137 11.3137C30.3143 8.31313 32 4.24346 32 0ZM32 32C32 27.7565 30.3143 23.6869 27.3137 20.6863C24.3131 17.6857 20.2435 16 16 16C16 20.2435 17.6857 24.3131 20.6863 27.3137C23.6869 30.3143 27.7565 32 32 32Z" fill="#171717"/>
</g>
<defs>
<clipPath id="clip0_5693_1851">
<rect width="32" height="32" fill="white"/>
</clipPath>
</defs>
</svg>
