<svg width="32" height="32" viewBox="0 0 32 32" fill="none" xmlns="http://www.w3.org/2000/svg">
<g clip-path="url(#clip0_5693_1857)">
<path d="M32 0H16C11.7565 0 7.68687 1.68571 4.68629 4.68629C1.68571 7.68687 0 11.7565 0 16L0 32H16C20.2435 32 24.3131 30.3143 27.3137 27.3137C30.3143 24.3131 32 20.2435 32 16V0ZM24 16C24 18.1217 23.1571 20.1566 21.6569 21.6569C20.1566 23.1571 18.1217 24 16 24H8V16C8 13.8783 8.84286 11.8434 10.3431 10.3431C11.8434 8.84286 13.8783 8 16 8H24V16ZM32 0H16C11.7565 0 7.68687 1.68571 4.68629 4.68629C1.68571 7.68687 0 11.7565 0 16L0 32H16C20.2435 32 24.3131 30.3143 27.3137 27.3137C30.3143 24.3131 32 20.2435 32 16V0ZM24 16C24 18.1217 23.1571 20.1566 21.6569 21.6569C20.1566 23.1571 18.1217 24 16 24H8V16C8 13.8783 8.84286 11.8434 10.3431 10.3431C11.8434 8.84286 13.8783 8 16 8H24V16Z" fill="#171717"/>
</g>
<defs>
<clipPath id="clip0_5693_1857">
<rect width="32" height="32" fill="white"/>
</clipPath>
</defs>
</svg>
