<svg width="32" height="32" viewBox="0 0 32 32" fill="none" xmlns="http://www.w3.org/2000/svg">
<g clip-path="url(#clip0_5693_1824)">
<path d="M16 16C11.7565 16 7.68687 17.6857 4.68629 20.6863C1.68571 23.6869 0 27.7565 0 32H8C8 29.8783 8.84286 27.8434 10.3431 26.3431C11.8434 24.8429 13.8783 24 16 24C18.1217 24 20.1566 24.8429 21.6569 26.3431C23.1571 27.8434 24 29.8783 24 32H32C32 27.7565 30.3143 23.6869 27.3137 20.6863C24.3131 17.6857 20.2435 16 16 16Z" fill="#171717"/>
<path d="M32 0H24C24 2.12173 23.1571 4.15656 21.6569 5.65685C20.1566 7.15715 18.1217 8 16 8C13.8783 8 11.8434 7.15715 10.3431 5.65685C8.84286 4.15656 8 2.12173 8 0L0 0C0 4.24346 1.68571 8.31313 4.68629 11.3137C7.68687 14.3143 11.7565 16 16 16C20.2435 16 24.3131 14.3143 27.3137 11.3137C30.3143 8.31313 32 4.24346 32 0Z" fill="#171717"/>
</g>
<defs>
<clipPath id="clip0_5693_1824">
<rect width="32" height="32" fill="white"/>
</clipPath>
</defs>
</svg>
