<svg width="32" height="32" viewBox="0 0 32 32" fill="none" xmlns="http://www.w3.org/2000/svg">
<g clip-path="url(#clip0_5700_957)">
<path d="M16 0H0C0 4.24346 1.68571 8.31313 4.68629 11.3137C7.68687 14.3143 11.7565 16 16 16H32C32 11.7565 30.3143 7.68687 27.3137 4.68629C24.3131 1.68571 20.2435 0 16 0ZM16 16H0C0 20.2435 1.68571 24.3131 4.68629 27.3137C7.68687 30.3143 11.7565 32 16 32H32C32 27.7565 30.3143 23.6869 27.3137 20.6863C24.3131 17.6857 20.2435 16 16 16Z" fill="#171717"/>
</g>
<defs>
<clipPath id="clip0_5700_957">
<rect width="32" height="32" fill="white"/>
</clipPath>
</defs>
</svg>
