<svg width="47" height="47" viewBox="0 0 47 47" fill="none" xmlns="http://www.w3.org/2000/svg">
<path d="M8.97584 33.9206C6.95827 31.7788 5.875 29.3752 5.875 25.4787C5.875 18.6256 10.6857 12.4819 17.6849 9.44556L19.4331 12.1434C12.9016 15.6774 11.625 20.2611 11.1148 23.1516C12.1664 22.6077 13.543 22.4164 14.8926 22.5416C18.4261 22.8692 21.2111 25.7699 21.2111 29.3752C21.2111 33.1606 18.1423 36.2293 14.3569 36.2293C12.2554 36.2293 10.2459 35.2688 8.97584 33.9206ZM28.5592 33.9206C26.5417 31.7788 25.4583 29.3752 25.4583 25.4787C25.4583 18.6256 30.269 12.4819 37.2683 9.44556L39.0165 12.1434C32.4848 15.6774 31.2084 20.2611 30.6981 23.1516C31.7497 22.6077 33.1264 22.4164 34.4759 22.5416C38.0095 22.8692 40.7944 25.7699 40.7944 29.3752C40.7944 33.1606 37.7257 36.2293 33.9403 36.2293C31.8388 36.2293 29.8293 35.2688 28.5592 33.9206Z" fill="#0D0D0D"/>
</svg>
