<svg width="16" height="17" viewBox="0 0 16 17" fill="none" xmlns="http://www.w3.org/2000/svg">
<g clip-path="url(#clip0_5845_2931)">
<path d="M0.200195 4.82435V8.82051L3.89718 12.5175C6.20513 14.8254 7.74376 16.1931 8.0002 16.1931C8.278 16.1931 9.79526 14.8254 12.1246 12.4961L15.8002 8.82051V4.90983C15.8002 1.53339 15.7575 0.999142 15.4583 0.870923C15.2232 0.785444 14.5394 1.31969 13.2572 2.60188L11.4194 4.43969H8.0002H4.58102L2.76458 2.62325C1.7602 1.61887 0.777182 0.806814 0.584853 0.806814C0.221565 0.806814 0.200195 1.12736 0.200195 4.82435ZM2.40129 5.97832C1.71746 6.66216 1.14047 7.21777 1.1191 7.21777C1.07636 7.21777 1.05499 6.08517 1.05499 4.7175V2.21722L2.33718 3.47805L3.61937 4.73887L2.40129 5.97832ZM14.9454 4.80298V7.30325L13.6632 6.04243L12.381 4.78161L13.5991 3.54216C14.2829 2.85832 14.8599 2.3027 14.8813 2.3027C14.924 2.3027 14.9454 3.43531 14.9454 4.80298Z" fill="#171717"/>
<path d="M5.29248 8.5C5.76219 8.50004 6.18703 8.69098 6.49463 8.99902C6.18696 9.30756 5.76261 9.49996 5.29248 9.5C4.82187 9.5 4.39614 9.30807 4.08838 8.99902C4.39608 8.69047 4.82229 8.5 5.29248 8.5Z" fill="white"/>
<path d="M10.7979 8.5C11.2676 8.50004 11.6924 8.69098 12 8.99902C11.6923 9.30756 11.268 9.49996 10.7979 9.5C10.3272 9.5 9.90152 9.30808 9.59375 8.99902C9.90145 8.69046 10.3277 8.5 10.7979 8.5Z" fill="white"/>
</g>
<defs>
<clipPath id="clip0_5845_2931">
<rect width="16" height="17" fill="white"/>
</clipPath>
</defs>
</svg>
